<svg xmlns="http://www.w3.org/2000/svg" width="78" height="91" viewBox="0 0 78 91">
    <g fill="none" fill-rule="evenodd">
        <g fill="#444" fill-rule="nonzero" opacity=".142">
            <path d="M11.237 15.6a2.981 2.981 0 0 0-1.893 2.5 2.949 2.949 0 0 0 1.43 2.8c.08.05.165.09.253.124l2.522.964a88.546 88.546 0 0 1 4.241 1.756c1.302.577 2.67 1.213 4.181 1.946a38.743 38.743 0 0 0 5.652 2.209 39.249 39.249 0 0 0 11.379 1.678 39.23 39.23 0 0 0 11.38-1.682 38.624 38.624 0 0 0 5.65-2.21c1.519-.736 2.886-1.373 4.18-1.946a86.996 86.996 0 0 1 4.241-1.756l2.522-.964c.087-.034.172-.075.252-.124a2.947 2.947 0 0 0 1.429-2.8 2.98 2.98 0 0 0-1.893-2.501 1.503 1.503 0 0 0-.245-.075L55.246 13.1V6.352c0-2.285-1.678-4.28-3.99-4.742a62.095 62.095 0 0 0-24.516.003c-2.31.463-3.987 2.458-3.987 4.742l.001 6.744-11.272 2.426a1.575 1.575 0 0 0-.245.074zM27.35 4.69a58.984 58.984 0 0 1 23.298-.002c.855.171 1.476.872 1.476 1.665V7.1c-1.957.42-3.943.753-5.925.983-4.762.552-9.64.552-14.403 0a1.562 1.562 0 0 0-1.728 1.379A1.568 1.568 0 0 0 31.44 11.2c2.5.29 5.042.437 7.558.437 2.517 0 5.06-.147 7.559-.437a65.977 65.977 0 0 0 5.568-.89v5.61a46.449 46.449 0 0 1-26.252 0V6.354c0-.793.621-1.493 1.478-1.664zm-4.598 11.618v.773c0 .684.44 1.29 1.088 1.496A49.746 49.746 0 0 0 39 20.95c5.1 0 10.201-.791 15.159-2.374a1.568 1.568 0 0 0 1.088-1.496v-.774l9.778 2.1-1.68.642a90.423 90.423 0 0 0-4.39 1.817 135.87 135.87 0 0 0-4.278 1.993 35.502 35.502 0 0 1-5.194 2.031 36.219 36.219 0 0 1-13.101 1.454 36.16 36.16 0 0 1-7.859-1.452 35.705 35.705 0 0 1-5.195-2.03c-1.544-.749-2.942-1.4-4.278-1.992a91.178 91.178 0 0 0-4.39-1.816l-1.68-.642 9.774-2.104zM56.78 42.679c.226.35.579.595.984.682l10.335 2.22 3.551 8.92a1.56 1.56 0 0 0 2.028.873 1.573 1.573 0 0 0 .869-2.04l-3.86-9.696a1.563 1.563 0 0 0-1.122-.952l-9.623-2.067 1.13-5.312a3.36 3.36 0 0 0-2.46-3.958l-5.127-1.315a1.558 1.558 0 0 0-1.88 1.068l-1.917 6.4a3.276 3.276 0 0 1-1.274 1.751l-7.103 4.894a4.058 4.058 0 0 1-4.6-.013l-6.998-4.876a3.277 3.277 0 0 1-1.26-1.742l-1.921-6.414a1.56 1.56 0 0 0-1.88-1.068l-5.128 1.316a3.359 3.359 0 0 0-2.46 3.957l1.13 5.308-9.754 2.071c-.51.108-.932.465-1.127.952l-3.86 9.697c-.319.805.07 1.718.87 2.04a1.558 1.558 0 0 0 2.028-.874l3.55-8.918 10.466-2.221c.406-.087.76-.332.986-.681.226-.35.304-.775.217-1.183l-1.456-6.847c-.024-.114.054-.229.18-.26l3.68-.945 1.49 4.974a6.422 6.422 0 0 0 2.47 3.416l6.998 4.877a7.183 7.183 0 0 0 8.141.022l7.103-4.894a6.426 6.426 0 0 0 2.498-3.435l1.486-4.961 3.68.944c.126.033.204.148.18.262l-1.456 6.846c-.087.408-.01.832.216 1.182z"/>
            <path d="M22.994 62.94c.13.033.26.05.39.05h.004c.159 0 .316-.033.472-.083.107-.035.212-.074.31-.131.002 0 .004 0 .005-.002L39 54.032l14.055 8.287v11.072c0 .866.699 1.569 1.56 1.569.86 0 1.56-.703 1.56-1.57V61.42c0-.015-.004-.03-.005-.045-.001-.058-.01-.115-.017-.172-.006-.047-.012-.094-.023-.139-.011-.05-.029-.098-.045-.147-.016-.047-.031-.095-.051-.14-.021-.047-.047-.09-.073-.135-.024-.042-.047-.085-.076-.125-.03-.043-.064-.081-.099-.12-.032-.038-.063-.076-.099-.11-.035-.033-.075-.063-.114-.094-.042-.033-.085-.067-.131-.096-.014-.009-.025-.02-.04-.03L39.79 50.86c-.018-.01-.037-.016-.055-.026a1.599 1.599 0 0 0-.154-.07 1.405 1.405 0 0 0-.288-.086c-.046-.009-.092-.018-.138-.023-.054-.006-.108-.006-.162-.006-.046 0-.091 0-.136.005a1.426 1.426 0 0 0-.161.026c-.047.01-.092.019-.137.032a1.609 1.609 0 0 0-.141.052c-.052.02-.102.043-.15.069-.018.01-.038.015-.055.025L23.37 59.612l-8.462-4.771c-.014-.008-.03-.012-.044-.02a1.587 1.587 0 0 0-.155-.067c-.043-.017-.087-.036-.131-.049-.052-.015-.104-.023-.156-.034-.046-.008-.092-.018-.14-.022-.055-.005-.11-.004-.166-.003-.044.001-.087 0-.13.004a1.408 1.408 0 0 0-.169.03c-.043.01-.086.018-.128.03-.05.016-.099.037-.148.059-.047.02-.094.039-.139.064-.015.009-.032.013-.047.022L1.13 62.065a1.57 1.57 0 0 0-.771 1.39 1.57 1.57 0 0 0 .835 1.352l11.39 6.004v7.79c0 .866.7 1.568 1.56 1.568.862 0 1.56-.702 1.56-1.569v-8.739a1.57 1.57 0 0 0-.835-1.389l-9.736-5.131 9.029-5.324 8.459 4.77c.118.067.243.118.374.152zM76.87 62.065l-12.225-7.208c-.019-.011-.04-.017-.059-.027a1.725 1.725 0 0 0-.145-.067c-.047-.019-.093-.037-.14-.052a1.538 1.538 0 0 0-.145-.033c-.05-.01-.1-.02-.15-.025a1.416 1.416 0 0 0-.153-.004c-.048 0-.096 0-.143.004-.053.005-.105.015-.158.025a1.356 1.356 0 0 0-.282.086c-.05.02-.099.042-.146.067-.019.01-.038.016-.057.026l-3.153 1.86a1.574 1.574 0 0 0-.556 2.147 1.558 1.558 0 0 0 2.135.56l2.363-1.394 10.667 6.289v7.075c0 .866.699 1.57 1.56 1.57.86 0 1.56-.704 1.56-1.57v-7.976c0-.015-.004-.03-.005-.045-.001-.058-.01-.115-.017-.172-.006-.047-.012-.094-.023-.139-.011-.05-.029-.098-.045-.146-.016-.048-.031-.096-.051-.142-.021-.046-.047-.09-.073-.134-.024-.042-.048-.085-.076-.125-.03-.043-.064-.081-.099-.12-.032-.038-.063-.076-.099-.11-.035-.033-.075-.063-.114-.094-.043-.033-.085-.067-.131-.096-.014-.01-.025-.022-.04-.03z"/>
            <path d="M.38 78.054c.007.047.012.094.023.139.012.05.03.098.045.146.017.048.032.096.052.141.021.047.047.09.073.135.024.042.047.085.075.125.03.042.065.08.1.12.031.038.062.075.098.11.035.033.075.063.114.093.043.034.085.068.132.097.014.008.025.02.039.029l12.226 7.208a1.554 1.554 0 0 0 1.578 0l3.315-1.954c.744-.439.993-1.4.557-2.148a1.553 1.553 0 0 0-2.135-.559l-2.526 1.489-10.666-6.29v-7.074c0-.867-.699-1.57-1.56-1.57-.86 0-1.56.703-1.56 1.57v7.974c0 .016.004.03.005.045 0 .06.007.116.016.174zM21.847 80.05c.006.048.012.095.023.141.011.05.028.098.044.146.016.048.031.097.052.142.02.046.047.089.071.132.025.043.049.087.077.128.029.042.063.08.096.118.033.038.065.077.102.112.034.033.072.061.11.09.044.036.088.07.136.101.013.009.023.02.037.028l15.614 9.206a1.547 1.547 0 0 0 1.579.001l14.842-8.752 8.461 4.772a1.555 1.555 0 0 0 1.552-.015l12.226-7.21a1.572 1.572 0 0 0 0-2.707L65.414 69.73v-7.075c0-.867-.699-1.57-1.56-1.57-.861 0-1.56.703-1.56 1.57v7.974c0 .557.293 1.071.77 1.354l9.93 5.855-9.158 5.4-8.461-4.77c-.014-.009-.03-.012-.045-.02-.05-.026-.1-.047-.152-.067-.045-.018-.09-.037-.137-.05-.048-.014-.096-.022-.145-.032-.05-.009-.1-.02-.15-.024-.05-.005-.1-.002-.15-.002-.05 0-.099 0-.148.004-.052.006-.102.018-.152.028-.049.01-.096.019-.143.034-.047.014-.092.034-.138.053-.05.021-.1.042-.147.068-.015.008-.03.012-.045.02L39 87.224l-14.054-8.288v-11.07c0-.866-.699-1.57-1.56-1.57-.861 0-1.56.704-1.56 1.57v11.97c0 .016.004.03.005.047.001.056.008.112.016.168z"/>
        </g>
        <g fill-rule="nonzero" opacity=".503">
            <path fill="#EA4403" d="M42.625 73.293l1.306 1.399-.594 1.107-3.293-.15-.054-.857 1.08.202 1.512.1.054-.352-1.998-.906zM30.488 69.759l-1.836.604-.431-.453-.216.05.486.856 2.375-.604zM35.874 75.874l.345.847 1.782.755.154.483h.883l-.452-.901-1.565-.806.054-2.617-3.887-1.108-.162.604z"/>
            <path fill="#FF5000" d="M42.636 77.959h-.864l-.54-.8 1.134-3.877.972-.05-1.176 3.854zM30.542 71.772v2.215l-.594.05.81 3.927h.918l-.108-.604-.432-2.266 2.059-2.004.37-.361z"/>
            <path fill="#FF5000" d="M47.71 72.326v.453l-1.808 1.686h-.837V72.83l-2.44.564-3.877.896-8.206-2.467-.054-2.063 4.157-1.963 7.559-3.776 5.507 5.084v1.963h2.267z"/>
        </g>
    </g>
</svg>
